HIERARCHY
ROOT Hips
{
	OFFSET 0.00000 0.00000 0.00000
	CHANNELS 6 Xposition Yposition Zposition Zrotation Yrotation Xrotation 
	JOINT LHipJoint
	{
		OFFSET 0 0 0
		CHANNELS 3 Zrotation Yrotation Xrotation
		JOINT LeftHip
		{
			OFFSET 1.75344 -1.53157 0.77399
			CHANNELS 3 Zrotation Yrotation Xrotation
			JOINT LeftKnee
			{
				OFFSET 2.25415 -6.19323 0.00000
				CHANNELS 3 Zrotation Yrotation Xrotation
				JOINT LeftAnkle
				{
					OFFSET 2.30342 -6.32861 0.00000
					CHANNELS 3 Zrotation Yrotation Xrotation
					JOINT LeftToe
					{
						OFFSET 0.10958 -0.30108 1.49206
						CHANNELS 3 Zrotation Yrotation Xrotation
						End Site
						{
							OFFSET 0.00000 -0.00000 0.77783
						}
					}
				}
			}
		}
	}
	JOINT RHipJoint
	{
		OFFSET 0 0 0
		CHANNELS 3 Zrotation Yrotation Xrotation
		JOINT RightHip
		{
			OFFSET -1.81912 -1.53156 0.77399
			CHANNELS 3 Zrotation Yrotation Xrotation
			JOINT RightKnee
			{
				OFFSET -2.22882 -6.12365 0.00000
				CHANNELS 3 Zrotation Yrotation Xrotation
				JOINT RightAnkle
				{
					OFFSET -2.21943 -6.09785 0.00000
					CHANNELS 3 Zrotation Yrotation Xrotation
					JOINT RightToe
					{
						OFFSET -0.18931 -0.52012 1.59379
						CHANNELS 3 Zrotation Yrotation Xrotation
						End Site
						{
							OFFSET -0.00000 -0.00000 0.84686
						}
					}
				}
			}
		}
	}
	JOINT lowerback
	{
		OFFSET 0 0 0
		CHANNELS 3 Zrotation Yrotation Xrotation
		JOINT Chest
		{
			OFFSET -0.00200 1.66634 -0.14248
			CHANNELS 3 Zrotation Yrotation Xrotation
			JOINT Chest2
			{
				OFFSET -0.00875 1.64542 0.09514
				CHANNELS 3 Zrotation Yrotation Xrotation
				JOINT lowerneck
				{
					OFFSET 0 0 0
					CHANNELS 3 Zrotation Yrotation Xrotation
					JOINT Neck
					{
						OFFSET 0.02257 1.59605 0.00839
						CHANNELS 3 Zrotation Yrotation Xrotation
						JOINT Head
						{
							OFFSET -0.10214 1.57530 -0.23335
							CHANNELS 3 Zrotation Yrotation Xrotation
							End Site
							{
								OFFSET -0.03588 1.60717 -0.08062
							}
						}
					}
				}
				JOINT LeftCollar
				{
					OFFSET 0 0 0
					CHANNELS 3 Zrotation Yrotation Xrotation
					JOINT LeftShoulder
					{
						OFFSET 2.54983 1.10186 0.40078
CHANNELS 3 Zrotation Xrotation Yrotation
						JOINT LeftElbow
						{
OFFSET 0 -4.288400 0.000000
CHANNELS 3 Zrotation Xrotation Yrotation
							JOINT LeftWrist
							{
OFFSET 0 -3.065520 -0.000000
CHANNELS 3 Zrotation Xrotation Yrotation
								JOINT lhand
								{
									OFFSET 0 0 0
CHANNELS 3 Zrotation Xrotation Yrotation
									JOINT LFingers
									{
OFFSET 0 -0.753040 0.000000
CHANNELS 3 Zrotation Xrotation Yrotation
										End Site
										{
OFFSET 0 -0.607120 0.000000
										}
									}
								}
								JOINT LThumb
								{
OFFSET 0 0.000000 0.000000
CHANNELS 3 Zrotation Xrotation Yrotation
									End Site
									{
OFFSET 0 -0.616390 0.616390
									}
								}
							}
						}
					}
				}
				JOINT RightCollar
				{
					OFFSET 0 0 0
					CHANNELS 3 Zrotation Yrotation Xrotation
					JOINT RightShoulder
					{
						OFFSET -2.60909 1.35448 0.21802
CHANNELS 3 Zrotation Xrotation Yrotation
						JOINT RightElbow
						{
OFFSET 0 -4.521720 -0.000000
CHANNELS 3 Zrotation Xrotation Yrotation
							JOINT RightWrist
							{
OFFSET 0 -2.891400 0.000000
CHANNELS 3 Zrotation Xrotation Yrotation
								JOINT rhand
								{
									OFFSET 0 0 0
CHANNELS 3 Zrotation Xrotation Yrotation
									JOINT RFingers
									{
OFFSET 0 -0.680540 0.000000
CHANNELS 3 Zrotation Xrotation Yrotation
										End Site
										{
OFFSET 0 -0.548670 0.000000
										}
									}
								}
								JOINT RThumb
								{
OFFSET 0 0.000000 0.000000
CHANNELS 3 Zrotation Xrotation Yrotation
									End Site
									{
OFFSET 0 -0.557050 0.557050
									}
								}
							}
						}
					}
				}
			}
		}
	}
}
MOTION
Frames: 7
Frame Time: 0.008333333333333333
9.774953 19.283402 -5.322431 -0.888593 -2.691747 8.038004 0.000000 0.000000 0.000000 -21.819639 -15.063031 -5.994723 1.189565 6.921003 19.481640 -1.839224 29.977561 9.408430 1.297460 7.211495 20.345885 0.000000 0.000000 0.000000 23.938218 12.676390 -6.786307 -1.121098 -6.724313 18.901675 1.046130 -32.991607 17.953445 -1.139324 -6.768801 19.036144 1.473889 1.649703 8.337369 -0.710943 2.333177 -3.823332 -1.946407 1.029055 -8.645779 -3.650137 -1.727857 -8.052121 1.280226 -2.067593 23.291638 0.849080 -1.158099 8.622695 0.000000 0.000000 0.000000 36.498654 -17.065484 -20.243402 19.158392 -29.614878 5.108944 13.634516 2.394849 51.718288 0.000000 0.000000 0.000000 -7.125000 0.000000 0.000000 -13.221035 -21.393589 -17.486456 0.000000 0.000000 0.000000 -53.592529 -24.329180 6.672175 -40.736490 -48.500155 -18.989024 -5.256300 2.392940 53.479200 0.000000 0.000000 0.000000 7.125000 0.000000 0.000000 71.742895 73.394380 -54.573244
9.775858 19.331205 -5.291493 -0.863578 -2.649641 8.016611 0.000000 0.000000 0.000000 -21.758517 -15.387694 -6.170769 1.176096 6.883010 19.369319 -1.886273 29.970883 9.021891 1.391180 7.454284 21.072254 0.000000 0.000000 0.000000 23.882454 12.866169 -6.934320 -1.077294 -6.594938 18.521625 1.045791 -33.115020 18.070935 -1.258172 -7.095803 20.005831 1.427066 1.619708 8.545108 -0.741428 2.286732 -3.731197 -1.950822 1.007964 -8.669737 -3.617010 -1.742572 -8.030162 1.350479 -2.110378 23.193315 0.863040 -1.168097 8.586286 0.000000 0.000000 0.000000 36.105361 -16.762251 -20.283207 19.096176 -29.537834 5.078232 14.058747 2.503548 51.862264 0.000000 0.000000 0.000000 -7.125000 0.000000 0.000000 -13.076304 -21.609968 -17.313768 0.000000 0.000000 0.000000 -53.129588 -23.827339 7.397526 -40.807271 -48.540865 -19.042072 -10.706899 5.596820 53.548999 0.000000 0.000000 0.000000 7.125000 0.000000 0.000000 69.881885 75.458941 -55.148733
9.776764 19.379008 -5.260554 -0.838563 -2.607535 7.995218 0.000000 0.000000 0.000000 -21.697395 -15.712357 -6.346815 1.162626 6.845016 19.256998 -1.933322 29.964205 8.635352 1.484901 7.697074 21.798623 0.000000 0.000000 0.000000 23.826689 13.055949 -7.082333 -1.033490 -6.465563 18.141576 1.045451 -33.238433 18.188425 -1.377020 -7.422805 20.975518 1.380244 1.589713 8.752847 -0.771914 2.240287 -3.639061 -1.955236 0.986873 -8.693696 -3.583884 -1.757286 -8.008204 1.420731 -2.153163 23.094992 0.877000 -1.178096 8.549877 0.000000 0.000000 0.000000 35.712068 -16.459019 -20.323012 19.033960 -29.460791 5.047520 14.482978 2.612247 52.006240 0.000000 0.000000 0.000000 -7.125000 0.000000 0.000000 -12.931574 -21.826347 -17.141080 0.000000 0.000000 0.000000 -52.666646 -23.325498 8.122876 -40.878052 -48.581575 -19.095119 -16.157498 8.800700 53.618799 0.000000 0.000000 0.000000 7.125000 0.000000 0.000000 68.020875 77.523502 -55.724222
9.778182 19.421683 -5.228847 -0.798740 -2.548729 7.949337 0.000000 0.000000 0.000000 -21.659256 -16.067278 -6.481192 1.149125 6.806381 19.143074 -1.971460 30.009453 8.387860 1.488102 7.706547 21.826388 0.000000 0.000000 0.000000 23.754001 13.208899 -7.187362 -0.990039 -6.330355 17.746845 1.158068 -33.346076 17.658435 -1.380700 -7.435139 21.011168 1.328614 1.564846 8.986614 -0.821054 2.198298 -3.535867 -1.977728 0.967641 -8.719962 -3.509472 -1.727895 -8.192669 1.489926 -2.134630 23.119914 0.888267 -1.155239 8.591551 0.000000 0.000000 0.000000 35.387241 -16.107386 -20.574625 19.108644 -29.553149 5.084441 14.393456 2.762006 52.034150 0.000000 0.000000 0.000000 -7.125000 0.000000 0.000000 -12.974997 -21.835373 -17.202125 0.000000 0.000000 0.000000 -52.227200 -22.853852 8.403999 -40.977039 -48.638056 -19.169419 -14.247798 7.692337 54.301685 0.000000 0.000000 0.000000 7.125000 0.000000 0.000000 71.108465 76.918590 -57.997901
9.779691 19.463450 -5.197003 -0.756294 -2.486965 7.899119 0.000000 0.000000 0.000000 -21.625186 -16.427558 -6.608189 1.135618 6.767633 19.028867 -2.008020 30.063897 8.164992 1.475274 7.674703 21.730442 0.000000 0.000000 0.000000 23.678315 13.355328 -7.284780 -0.946650 -6.194114 17.349516 1.290687 -33.450927 17.013788 -1.363986 -7.391750 20.881416 1.276132 1.540888 9.224989 -0.873498 2.157097 -3.430715 -2.003422 0.948739 -8.746637 -3.427750 -1.690694 -8.413689 1.558933 -2.105239 23.166661 0.899058 -1.126565 8.647051 0.000000 0.000000 0.000000 35.074539 -15.747182 -20.863747 19.207571 -29.675506 5.133339 14.212958 2.919037 52.041508 0.000000 0.000000 0.000000 -7.125000 0.000000 0.000000 -13.051739 -21.807679 -17.304561 0.000000 0.000000 0.000000 -51.791914 -22.387552 8.606455 -41.081022 -48.697329 -19.247481 -11.034712 5.820348 55.093137 0.000000 0.000000 0.000000 7.125000 0.000000 0.000000 75.072369 75.840959 -60.572302
9.781095 19.504225 -5.165760 -0.725350 -2.423399 7.850689 0.000000 0.000000 0.000000 -21.574566 -16.789911 -6.743473 1.122283 6.729253 18.915786 -2.047194 30.155513 7.976794 1.444205 7.594223 21.489624 0.000000 0.000000 0.000000 23.614297 13.516586 -7.379215 -0.903554 -6.056933 16.950015 1.430038 -33.618454 16.395570 -1.371522 -7.408806 20.933633 1.234941 1.517192 9.473476 -0.922952 2.117992 -3.332181 -2.033120 0.930077 -8.786030 -3.349356 -1.662590 -8.622012 1.625499 -2.088056 23.208202 0.908466 -1.104171 8.698832 0.000000 0.000000 0.000000 34.756315 -15.405354 -21.139466 19.282676 -29.768414 5.170449 13.956576 3.121924 52.078825 0.000000 0.000000 0.000000 -7.125000 0.000000 0.000000 -13.166494 -21.794410 -17.461522 0.000000 0.000000 0.000000 -51.360722 -21.913357 8.849067 -41.159372 -48.741998 -19.306296 -8.151659 4.053684 55.827578 0.000000 0.000000 0.000000 7.125000 0.000000 0.000000 78.665124 74.877337 -62.931521
9.782076 19.541011 -5.136935 -0.740668 -2.352581 7.809450 0.000000 0.000000 0.000000 -21.457378 -17.160603 -6.912087 1.109644 6.692353 18.807239 -2.096884 30.396642 7.928047 1.339770 7.318119 20.666101 0.000000 0.000000 0.000000 23.597205 13.737492 -7.461654 -0.861636 -5.915976 16.541781 1.596463 -34.038082 15.883656 -1.476599 -7.668989 21.717766 1.239167 1.494555 9.762635 -0.960380 2.087318 -3.260269 -2.078924 0.912381 -8.876581 -3.284348 -1.671079 -8.779269 1.682244 -2.119975 23.228802 0.912315 -1.107038 8.735656 0.000000 0.000000 0.000000 34.415881 -15.137436 -21.361278 19.261962 -29.742871 5.160149 13.394972 3.509255 52.236648 0.000000 0.000000 0.000000 -7.125000 0.000000 0.000000 -13.434147 -21.839157 -17.837799 0.000000 0.000000 0.000000 -50.945999 -21.407404 9.253188 -41.134621 -48.727925 -19.287696 -6.596069 2.710663 56.332701 0.000000 0.000000 0.000000 7.125000 0.000000 0.000000 80.765038 74.372290 -64.425234
